<!-- Generated by IcoMoon.io -->
<svg version="1.1" xmlns="http://www.w3.org/2000/svg" width="528" height="512" viewBox="0 0 528 512">
<title></title>
<g id="icomoon-ignore">
</g>
<path d="M262.232 32c-123.712 0-224 100.288-224 224s100.287 224 224 224 224-100.288 224-224-100.288-224-224-224zM150.232 144h224c3.998 0 7.877 0.857 11.438 2.477l-123.438 144.011-123.438-144.012c3.56-1.617 7.44-2.476 11.438-2.476zM122.233 340v-168c0-0.585 0.024-1.169 0.061-1.75l82.103 95.787-81.199 81.199c-0.632-2.335-0.965-4.763-0.965-7.236zM374.232 368h-224c-2.475 0-4.901-0.332-7.236-0.966l79.677-79.678 39.561 46.155 39.56-46.155 79.676 79.678c-2.336 0.63-4.763 0.962-7.236 0.962zM402.232 340c0 2.474-0.332 4.9-0.965 7.236l-81.2-81.199 82.104-95.787c0.038 0.581 0.060 1.165 0.060 1.75v168z"></path>
</svg>
