<!-- Generated by IcoMoon.io -->
<svg version="1.1" xmlns="http://www.w3.org/2000/svg" width="512" height="512" viewBox="0 0 512 512">
<title></title>
<g id="icomoon-ignore">
</g>
<path d="M256 38.336c-123.31 0-223.188 99.931-223.188 223.188 0 98.631 63.942 182.269 152.604 211.749 11.159 2.101 15.252-4.798 15.252-10.731 0-5.301-0.187-19.342-0.279-37.942-62.084 13.465-75.178-29.945-75.178-29.945-10.155-25.76-24.831-32.641-24.831-32.641-20.218-13.839 1.561-13.56 1.561-13.56 22.412 1.562 34.184 22.988 34.184 22.988 19.9 34.129 52.244 24.272 65.002 18.562 2.010-14.432 7.756-24.272 14.136-29.851-49.566-5.58-101.662-24.774-101.662-110.291 0-24.364 8.648-44.265 22.97-59.888-2.512-5.636-10.043-28.327 1.953-59.071 0 0 18.692-5.989 61.377 22.877 17.855-4.966 36.826-7.421 55.797-7.533 18.971 0.112 37.942 2.567 55.797 7.533 42.406-28.865 61.098-22.877 61.098-22.877 11.995 30.744 4.464 53.434 2.232 59.071 14.228 15.623 22.877 35.523 22.877 59.888 0 85.742-52.17 104.618-101.829 110.106 7.812 6.697 15.065 20.385 15.065 41.291 0 29.87-0.279 53.862-0.279 61.117 0 5.86 3.906 12.832 15.344 10.601 89.293-29.274 153.182-112.969 153.182-211.452 0-123.255-99.932-223.188-223.188-223.188z"></path>
</svg>
