<!-- Generated by IcoMoon.io -->
<svg version="1.1" xmlns="http://www.w3.org/2000/svg" width="512" height="512" viewBox="0 0 512 512">
<title></title>
<g id="icomoon-ignore">
</g>
<path fill="#000" d="M256 32c-123.709 0-224 100.291-224 224s100.291 224 224 224c123.709 0 224-100.291 224-224s-100.291-224-224-224zM215.274 113.456h173.091l-10.38 8.971c0 0.406 0.2 0.805 0.2 1.215v53.752c6.11 3.462 10.181 9.985 10.181 17.518v61.091c0 11.2-9.164 20.365-20.365 20.365s-20.365-9.164-20.365-20.365v-61.090c0-7.536 4.074-14.059 10.182-17.518v-37.763l-36.551 31.361c3.565 7.126 6.006 15.779 6.006 26.369 0 27.696-15.47 41.435-30.842 53.654-4.785 4.886-10.402 10.187-10.402 18.435 0 8.144 5.613 12.729 9.685 15.988l13.124 10.481c16.189 13.846 30.865 26.582 30.865 52.342 0 35.126-33.502 70.658-96.628 70.658-53.25 0-78.909-25.76-78.909-53.456 0-13.44 6.612-32.485 28.298-45.62 22.704-14.154 53.563-16.082 70.157-17.202-5.194-6.72-11.099-13.745-11.099-25.456 0-6.211 1.925-9.976 3.76-14.557-4.074 0.406-8.147 0.815-11.813 0.815-38.69 0-60.787-29.329-60.993-58.346h-69.026l101.819-91.635zM248.563 146.446c-9.469 0-19.75 4.793-25.654 12.429-6.211 7.739-8.154 17.811-8.154 27.482 0 25.046 14.476 66.579 45.937 66.579 9.264 0 19.133-4.472 25.037-10.482 8.349-8.655 9.169-20.566 9.169-27.185 0-26.982-15.789-68.827-46.335-68.827zM266.579 313.113c-3.259 0-23.106 0.712-38.481 6.006-8.144 3.055-31.56 11.925-31.56 38.5s25.249 45.62 64.552 45.62c35.331 0 53.971-17.317 53.971-40.428 0-19.040-12.014-29.118-39.913-49.278-2.954-0.406-4.803-0.417-8.572-0.417z"></path>
</svg>
